<svg xmlns="http://www.w3.org/2000/svg" viewBox="333.055 147.99 146.013 109.51" width="146.013" height="109.51">
  <path id="Subtraction_1833" data-name="Subtraction 1833" d="M 449.866 257.5 L 362.257 257.5 C 346.129 257.5 333.055 244.425 333.055 228.297 L 333.055 223.274 C 338.369 223.267 343.45 221.091 347.123 217.251 C 350.891 213.365 352.987 208.158 352.964 202.745 C 353.122 191.582 344.217 182.396 333.055 182.208 L 333.055 177.192 C 333.055 161.064 346.129 147.99 362.257 147.99 L 449.866 147.99 C 465.994 147.99 479.068 161.064 479.068 177.192 L 479.068 228.297 C 479.048 244.417 465.986 257.48 449.866 257.5 Z M 429.278 204.322 C 416.713 204.535 409.091 218.271 415.559 229.045 C 422.026 239.82 437.732 239.553 443.829 228.564 C 445.182 226.127 445.888 223.383 445.879 220.595 C 445.898 211.475 438.403 204.128 429.285 204.329 L 429.278 204.322 Z M 426.854 169.746 L 380.859 235.729 L 391.905 235.729 L 437.9 169.746 L 426.854 169.746 Z M 389.387 168.526 C 376.828 168.74 369.209 182.469 375.674 193.239 C 382.139 204.008 397.837 203.741 403.932 192.758 C 405.284 190.321 405.99 187.579 405.981 184.792 C 405.987 175.677 398.5 168.338 389.387 168.526 Z M 429.285 228.932 C 424.875 228.762 421.428 225.065 421.568 220.653 C 421.934 214.657 428.654 211.304 433.664 214.619 C 438.675 217.934 438.218 225.43 432.842 228.112 C 431.738 228.663 430.519 228.944 429.285 228.932 Z M 389.387 193.071 C 384.96 192.973 381.478 189.26 381.663 184.836 C 381.344 178.837 387.64 174.743 392.995 177.467 C 395.745 178.866 397.413 181.755 397.25 184.836 C 397.397 189.299 393.851 193.012 389.387 193.071 Z" fill="#ef2809" style=""/>
</svg>